<?xml version="1.0" encoding="iso-8859-1"?>
<!-- Generator: Adobe Illustrator 19.0.0, SVG Export Plug-In . SVG Version: 6.00 Build 0)  -->
<svg version="1.1" id="Layer_1" xmlns="http://www.w3.org/2000/svg" xmlns:xlink="http://www.w3.org/1999/xlink" x="0px" y="0px"
	 viewBox="0 0 511.999 511.999" style="enable-background:new 0 0 511.999 511.999;" xml:space="preserve">
<g>
	<ellipse style="fill:#FCDDC9;" cx="450.926" cy="256" rx="50.625" ry="54.387"/>
	<ellipse style="fill:#FCDDC9;" cx="61.074" cy="256" rx="50.625" ry="54.387"/>
	<path style="fill:#FCDDC9;" d="M448.026,255.999c-0.001-106.054-85.973-192.025-192.027-192.028
		C149.946,63.974,63.976,149.945,63.974,255.999c0,106.051,85.972,192.025,192.025,192.028
		C362.053,448.025,448.026,362.05,448.026,255.999z"/>
</g>
<path style="fill:#10BAFC;" d="M288.043,306.723c-9.577,0-18.33,3.947-25.054,10.473c-2.675,2.593-11.303,2.593-13.978-0.002
	c-6.724-6.524-15.479-10.471-25.052-10.471c-21.225,0-38.43,19.382-38.43,43.29c0,23.91,17.205,43.29,38.43,43.29
	c9.574,0,18.331-3.949,25.057-10.474c2.672-2.594,11.298-2.593,13.972,0.003c6.724,6.524,15.479,10.472,25.053,10.472
	c21.224,0,38.428-19.38,38.428-43.29C326.471,326.105,309.267,306.723,288.043,306.723z"/>
<circle style="fill:#FFFFFF;" cx="256" cy="350.009" r="30.824"/>
<path d="M288.043,296.275c-11.438,0-22.466,4.383-31.215,12.374c-0.449,0.051-1.204,0.051-1.652,0
	c-8.752-7.991-19.779-12.374-31.215-12.374c-26.952,0-48.879,24.107-48.879,53.739c0,29.632,21.927,53.739,48.879,53.739
	c11.434,0,22.461-4.381,31.218-12.376c0.448-0.05,1.198-0.05,1.647,0.001c8.752,7.991,19.78,12.375,31.218,12.375
	c26.951,0,48.877-24.107,48.877-53.739C336.921,320.381,314.994,296.275,288.043,296.275z M256,370.389
	c-11.235,0-20.376-9.14-20.376-20.376c0-11.235,9.141-20.375,20.376-20.375c11.235,0,20.376,9.141,20.376,20.375
	C276.375,361.248,267.235,370.389,256,370.389z M195.978,350.014c0-18.109,12.552-32.841,27.981-32.841
	c2.195,0,4.222,0.293,6.089,0.78c-9.338,7.573-15.321,19.13-15.321,32.062c0,12.932,5.983,24.488,15.321,32.062
	c-1.866,0.486-3.893,0.78-6.089,0.78C208.53,382.855,195.978,368.122,195.978,350.014z M288.043,382.855
	c-2.195,0-4.223-0.294-6.09-0.78c9.338-7.573,15.32-19.13,15.32-32.062c0-12.932-5.983-24.488-15.32-32.062
	c1.867-0.486,3.894-0.78,6.09-0.78c15.428,0,27.979,14.732,27.979,32.841C316.022,368.123,303.471,382.855,288.043,382.855z"/>
<path d="M192.976,265.403c-8.067,0-14.629-6.562-14.629-14.629s6.562-14.629,14.629-14.629c8.067,0,14.629,6.562,14.629,14.629
	S201.041,265.403,192.976,265.403z"/>
<path d="M319.024,265.403c-8.067,0-14.629-6.562-14.629-14.629s6.562-14.629,14.629-14.629c8.067,0,14.629,6.562,14.629,14.629
	S327.091,265.403,319.024,265.403z"/>
<path d="M450.931,191.166c-1.022,0-2.046,0.038-3.07,0.092c-27.058-79.967-102.8-137.697-191.778-137.735v-0.001
	c-0.009,0-0.019,0-0.028,0c-0.019,0-0.038-0.001-0.056-0.001C166.986,53.524,91.206,111.265,64.14,191.258
	c-1.024-0.054-2.048-0.091-3.07-0.091C27.395,191.166,0,220.25,0,255.999c0,35.748,27.395,64.831,61.069,64.831
	c1.031,0,2.065-0.038,3.097-0.093c8.082,23.956,20.623,46.373,37.154,65.924c30.457,36.022,72.665,60.402,118.848,68.654
	c5.678,1.011,11.108-2.768,12.124-8.449c1.015-5.681-2.768-11.109-8.448-12.124c-86.581-15.468-149.422-90.64-149.422-178.742
	c0.001-79.896,51.875-147.903,123.708-172.121c-7.956,11.425-12.638,25.292-12.638,40.238c0,32.292,26.272,58.562,58.563,58.562
	c0.002,0,0.003,0,0.005,0c12.938,0,24.994-4.155,33.946-11.699c9.667-8.147,14.991-19.595,14.991-32.235
	c0-18.961-9.519-32.843-25.465-37.137c-5.567-1.499-11.305,1.801-12.806,7.374c-1.5,5.572,1.801,11.306,7.374,12.806
	c6.635,1.787,10,7.492,10,16.958c0,8.169-4.112,13.349-7.56,16.255c-5.189,4.373-12.461,6.78-20.48,6.78c-0.001,0-0.003,0-0.003,0
	c-20.769,0-37.666-16.896-37.666-37.664c0-27.394,22.277-49.681,49.665-49.696C356.15,74.454,437.576,155.898,437.577,256
	c0,88.221-62.94,163.409-149.659,178.784c-5.682,1.007-9.472,6.43-8.465,12.112c0.899,5.066,5.305,8.627,10.277,8.627
	c0.605,0,1.219-0.052,1.836-0.162c46.244-8.198,88.516-32.562,119.029-68.602c16.573-19.575,29.143-42.025,37.238-66.022
	c1.032,0.055,2.066,0.094,3.097,0.094c33.674,0,61.069-29.083,61.069-64.831C512,220.25,484.605,191.166,450.931,191.166z
	 M20.898,255.999c0-23.212,16.548-42.265,37.418-43.82c-3.127,14.117-4.791,28.776-4.791,43.82c0,14.826,1.636,29.517,4.809,43.819
	C37.455,298.273,20.898,279.217,20.898,255.999z M453.668,299.819c3.172-14.302,4.809-28.992,4.809-43.819
	c0-15.043-1.663-29.703-4.791-43.82c20.869,1.554,37.417,20.607,37.417,43.819C491.102,279.217,474.545,298.273,453.668,299.819z"/>
<path d="M256.124,458.478c-0.044,0-0.089,0-0.134-0.001l-0.245-0.003c-5.77-0.072-10.389-4.809-10.317-10.579
	c0.071-5.725,4.735-10.318,10.446-10.318c0.045,0,0.089,0,0.133,0.001l0.245,0.003c5.771,0.072,10.389,4.809,10.317,10.579
	C266.498,453.886,261.834,458.478,256.124,458.478z"/>
<g>
</g>
<g>
</g>
<g>
</g>
<g>
</g>
<g>
</g>
<g>
</g>
<g>
</g>
<g>
</g>
<g>
</g>
<g>
</g>
<g>
</g>
<g>
</g>
<g>
</g>
<g>
</g>
<g>
</g>
</svg>
