<?xml version="1.0" encoding="iso-8859-1"?>
<!-- Generator: Adobe Illustrator 19.0.0, SVG Export Plug-In . SVG Version: 6.00 Build 0)  -->
<svg version="1.1" id="Layer_1" xmlns="http://www.w3.org/2000/svg" xmlns:xlink="http://www.w3.org/1999/xlink" x="0px" y="0px"
	 viewBox="0 0 512 512" style="enable-background:new 0 0 512 512;" xml:space="preserve">
<path style="fill:#10BAFC;" d="M298.563,452.117c-65.911,65.911-172.773,65.911-238.683,0.002l0,0
	c-65.908-65.91-65.908-172.771,0.003-238.682L213.437,59.883C279.348-6.028,386.21-6.028,452.12,59.881l0,0
	c65.909,65.91,65.909,172.772-0.002,238.683L298.563,452.117z"/>
<circle style="fill:#FCDDC9;" cx="328.558" cy="183.442" r="123.988"/>
<path d="M136.581,326.883c-3.571,0-7.039-1.833-8.977-5.145c-0.005-0.009-0.057-0.098-0.063-0.108
	c-2.895-4.984-1.232-11.413,3.749-14.316c4.98-2.903,11.348-1.265,14.259,3.711c0.005,0.009,0.057,0.098,0.063,0.108
	c2.895,4.985,1.232,11.413-3.749,14.316C140.197,326.421,138.376,326.883,136.581,326.883z"/>
<path d="M312.387,255.699c-14.837,0-29.026-5.825-39.642-16.441c-12.026-12.026-17.905-28.639-16.132-45.581
	c0.601-5.738,5.741-9.908,11.479-9.304c5.74,0.6,9.905,5.741,9.304,11.479c-1.114,10.645,2.576,21.08,10.124,28.628
	s17.974,11.239,28.627,10.124c5.741-0.6,10.878,3.564,11.479,9.304c0.601,5.739-3.564,10.879-9.304,11.479
	C316.339,255.596,314.356,255.699,312.387,255.699z"/>
<path d="M312.712,180.378c-8.286,0.001-16.21-3.254-22.139-9.185c-6.716-6.715-10-15.991-9.01-25.45
	c0.6-5.739,5.728-9.9,11.479-9.304c5.739,0.6,9.905,5.74,9.304,11.479c-0.33,3.161,0.764,6.258,3.004,8.497
	c2.241,2.241,5.344,3.335,8.498,3.005c5.757-0.612,10.879,3.566,11.479,9.304c0.601,5.74-3.565,10.879-9.304,11.479
	C314.917,180.32,313.81,180.378,312.712,180.378z"/>
<path d="M362.945,230.61c-8.285,0-16.211-3.255-22.14-9.186c-6.715-6.713-9.999-15.99-9.009-25.448
	c0.6-5.739,5.723-9.906,11.479-9.304c5.739,0.6,9.906,5.74,9.304,11.479c-0.33,3.161,0.764,6.258,3.003,8.496
	c2.241,2.242,5.336,3.336,8.499,3.006c5.742-0.603,10.879,3.566,11.479,9.304c0.601,5.74-3.565,10.879-9.304,11.479
	C365.149,230.553,364.043,230.61,362.945,230.61z"/>
<path d="M423.624,278.498c52.414-52.416,52.414-137.705-0.001-190.12c-0.039-0.04-0.079-0.077-0.119-0.116l0.001-0.001
	c-0.04-0.04-0.08-0.075-0.12-0.114c-25.365-25.243-59.025-39.143-94.822-39.143c-35.909,0-69.67,13.984-95.062,39.375
	c-52.415,52.416-52.415,137.704,0,190.121c14.326,14.326,31.317,25.018,49.854,31.619c-38.089-2.887-73.505-19.102-100.798-46.396
	c-4.08-4.077-10.695-4.079-14.778,0c-4.08,4.08-4.08,10.697,0,14.778c34.168,34.169,79.599,52.987,127.922,52.986
	c48.014-0.001,93.168-18.587,127.262-52.343c0.218-0.216,0.442-0.426,0.659-0.644L423.624,278.498L423.624,278.498L423.624,278.498z
	 M248.278,103.155c21.444-21.444,49.956-33.254,80.284-33.254c11.929,0,23.573,1.835,34.621,5.356
	c-7.461,2.815-14.308,7.197-20.115,13.004c-8.989,8.988-13.939,20.941-13.938,33.653c0,12.712,4.951,24.664,13.94,33.651
	c7.461,7.463,16.835,12.021,26.4,12.837c1.046,0.09,2.085,0.134,3.116,0.134c9.263,0,17.887-3.573,24.551-10.237
	c13.8-13.801,14.223-31.212,1.079-44.356c-4.081-4.079-10.696-4.079-14.778,0c-4.08,4.08-4.08,10.697,0,14.778
	c2.228,2.227,6.861,6.861-1.078,14.802c-3.062,3.061-6.804,4.429-11.114,4.057c-4.66-0.397-9.42-2.809-13.4-6.791
	c-10.408-10.408-10.409-27.343-0.002-37.75c13.993-13.993,36.735-14.026,50.772-0.107c0.075,0.075,0.153,0.147,0.229,0.223
	c44.267,44.268,44.267,116.297,0,160.566c-0.671,0.671-1.352,1.326-2.031,1.983c-21.197,20.19-48.873,31.272-78.251,31.272
	c-30.327,0-58.839-11.809-80.284-33.254C204.01,219.453,204.01,147.423,248.278,103.155z"/>
<path d="M79.142,384.404c-3.641,0-7.179-1.907-9.102-5.304c-2.955-4.956-1.321-11.349,3.636-14.304
	c4.954-2.955,11.383-1.31,14.338,3.645l0.211,0.366c2.843,5.022,1.076,11.398-3.946,14.24
	C82.655,383.967,80.886,384.404,79.142,384.404z"/>
<path d="M459.508,52.491C425.657,18.642,380.651,0,332.78,0c-47.872,0-92.88,18.643-126.732,52.494L52.494,206.048
	c-69.879,69.88-69.88,183.58-0.002,253.46C86.343,493.358,131.349,512,179.221,512c47.873,0,92.88-18.643,126.731-52.494
	l153.554-153.554C529.385,236.073,529.386,122.371,459.508,52.491z M444.728,291.174L291.174,444.728
	c-29.904,29.904-69.663,46.374-111.953,46.374S97.173,474.633,67.269,444.73C10.842,388.303,6.007,299.534,52.74,237.548
	c-1.007,3.469-1.934,6.967-2.734,10.505c-7.313,32.352-5.638,66.055,4.845,97.465c1.46,4.376,5.537,7.144,9.91,7.144
	c1.096,0,2.212-0.174,3.309-0.541c5.473-1.826,8.43-7.745,6.603-13.219c-18.997-56.921-5.035-118.523,36.373-161.602
	c-1.344,4.365-2.537,8.784-3.55,13.262c-7.313,32.352-5.638,66.055,4.845,97.466c1.46,4.377,5.536,7.144,9.91,7.144
	c1.096,0,2.211-0.174,3.309-0.541c5.473-1.826,8.43-7.745,6.603-13.219c-19.341-57.953-4.54-120.771,38.629-163.938
	c-0.045-0.015-0.082-0.031-0.125-0.046l50.157-50.157c29.906-29.903,69.665-46.373,111.957-46.373
	c42.29,0,82.047,16.469,111.951,46.372C506.461,129,506.46,229.444,444.728,291.174z"/>
<g>
</g>
<g>
</g>
<g>
</g>
<g>
</g>
<g>
</g>
<g>
</g>
<g>
</g>
<g>
</g>
<g>
</g>
<g>
</g>
<g>
</g>
<g>
</g>
<g>
</g>
<g>
</g>
<g>
</g>
</svg>
